<mxfile host="Electron" modified="2023-06-08T22:14:44.539Z" agent="Mozilla/5.0 (Windows NT 10.0; Win64; x64) AppleWebKit/537.36 (KHTML, like Gecko) draw.io/21.2.8 Chrome/112.0.5615.165 Electron/24.2.0 Safari/537.36" etag="-zztONr0sKaweycbEpO4" version="21.2.8" type="device">
  <diagram name="Page-1" id="4-tJeP5UXOovJWafoPnk">
    <mxGraphModel dx="2720" dy="1160" grid="0" gridSize="10" guides="1" tooltips="1" connect="1" arrows="1" fold="1" page="1" pageScale="1" pageWidth="827" pageHeight="1169" math="0" shadow="0">
      <root>
        <mxCell id="0" />
        <mxCell id="1" parent="0" />
        <mxCell id="kxyHx-TRx4rQ2cI2zu9u-2" style="edgeStyle=none;shape=connector;rounded=0;orthogonalLoop=1;jettySize=auto;html=1;entryX=0.5;entryY=0;entryDx=0;entryDy=0;labelBackgroundColor=default;strokeColor=default;strokeWidth=2;fontFamily=Fira Code;fontSource=https%3A%2F%2Ffonts.googleapis.com%2Fcss%3Ffamily%3DFira%2BCode;fontSize=16;fontColor=default;endArrow=open;endFill=0;" edge="1" parent="1" source="kxyHx-TRx4rQ2cI2zu9u-5" target="kxyHx-TRx4rQ2cI2zu9u-7">
          <mxGeometry relative="1" as="geometry">
            <Array as="points">
              <mxPoint x="340" y="720" />
              <mxPoint x="320" y="740" />
            </Array>
          </mxGeometry>
        </mxCell>
        <mxCell id="kxyHx-TRx4rQ2cI2zu9u-3" style="edgeStyle=none;shape=connector;rounded=0;orthogonalLoop=1;jettySize=auto;html=1;entryX=0.5;entryY=0;entryDx=0;entryDy=0;labelBackgroundColor=default;strokeColor=default;strokeWidth=2;fontFamily=Fira Code;fontSource=https%3A%2F%2Ffonts.googleapis.com%2Fcss%3Ffamily%3DFira%2BCode;fontSize=16;fontColor=default;endArrow=open;endFill=0;" edge="1" parent="1" source="kxyHx-TRx4rQ2cI2zu9u-5" target="kxyHx-TRx4rQ2cI2zu9u-8">
          <mxGeometry relative="1" as="geometry">
            <Array as="points">
              <mxPoint x="860" y="720" />
              <mxPoint x="880" y="740" />
            </Array>
          </mxGeometry>
        </mxCell>
        <mxCell id="kxyHx-TRx4rQ2cI2zu9u-4" style="edgeStyle=none;shape=connector;rounded=0;orthogonalLoop=1;jettySize=auto;html=1;entryX=0.5;entryY=0;entryDx=0;entryDy=0;labelBackgroundColor=default;strokeColor=default;strokeWidth=2;fontFamily=Fira Code;fontSource=https%3A%2F%2Ffonts.googleapis.com%2Fcss%3Ffamily%3DFira%2BCode;fontSize=16;fontColor=default;endArrow=open;endFill=0;" edge="1" parent="1" source="kxyHx-TRx4rQ2cI2zu9u-5" target="kxyHx-TRx4rQ2cI2zu9u-6">
          <mxGeometry relative="1" as="geometry" />
        </mxCell>
        <mxCell id="kxyHx-TRx4rQ2cI2zu9u-22" style="edgeStyle=none;shape=connector;rounded=0;orthogonalLoop=1;jettySize=auto;html=1;entryX=0.5;entryY=0;entryDx=0;entryDy=0;labelBackgroundColor=default;strokeColor=default;strokeWidth=2;fontFamily=Fira Code;fontSource=https%3A%2F%2Ffonts.googleapis.com%2Fcss%3Ffamily%3DFira%2BCode;fontSize=16;fontColor=default;endArrow=open;endFill=0;" edge="1" parent="1" source="kxyHx-TRx4rQ2cI2zu9u-5" target="kxyHx-TRx4rQ2cI2zu9u-9">
          <mxGeometry relative="1" as="geometry">
            <Array as="points">
              <mxPoint x="60" y="720" />
              <mxPoint x="40" y="740" />
            </Array>
          </mxGeometry>
        </mxCell>
        <mxCell id="kxyHx-TRx4rQ2cI2zu9u-23" style="edgeStyle=none;shape=connector;rounded=0;orthogonalLoop=1;jettySize=auto;html=1;entryX=0.5;entryY=0;entryDx=0;entryDy=0;labelBackgroundColor=default;strokeColor=default;strokeWidth=2;fontFamily=Fira Code;fontSource=https%3A%2F%2Ffonts.googleapis.com%2Fcss%3Ffamily%3DFira%2BCode;fontSize=16;fontColor=default;endArrow=open;endFill=0;" edge="1" parent="1" source="kxyHx-TRx4rQ2cI2zu9u-5" target="kxyHx-TRx4rQ2cI2zu9u-10">
          <mxGeometry relative="1" as="geometry">
            <Array as="points">
              <mxPoint x="1140" y="720" />
              <mxPoint x="1160" y="740" />
            </Array>
          </mxGeometry>
        </mxCell>
        <mxCell id="kxyHx-TRx4rQ2cI2zu9u-5" value="Landing Page and Auth" style="shape=parallelogram;perimeter=parallelogramPerimeter;whiteSpace=wrap;html=1;fixedSize=1;strokeWidth=2;fontStyle=1;fontSize=16;fontFamily=Fira Code;fontSource=https%3A%2F%2Ffonts.googleapis.com%2Fcss%3Ffamily%3DFira%2BCode;fillColor=#E6E6E6;" vertex="1" parent="1">
          <mxGeometry x="480" y="690" width="240" height="60" as="geometry" />
        </mxCell>
        <mxCell id="kxyHx-TRx4rQ2cI2zu9u-13" style="edgeStyle=none;shape=connector;rounded=0;orthogonalLoop=1;jettySize=auto;html=1;entryX=1;entryY=0.5;entryDx=0;entryDy=0;labelBackgroundColor=default;strokeColor=default;strokeWidth=2;fontFamily=Fira Code;fontSource=https%3A%2F%2Ffonts.googleapis.com%2Fcss%3Ffamily%3DFira%2BCode;fontSize=16;fontColor=default;endArrow=open;endFill=0;" edge="1" parent="1" source="kxyHx-TRx4rQ2cI2zu9u-6" target="kxyHx-TRx4rQ2cI2zu9u-11">
          <mxGeometry relative="1" as="geometry">
            <Array as="points">
              <mxPoint x="600" y="980" />
              <mxPoint x="580" y="1000" />
            </Array>
          </mxGeometry>
        </mxCell>
        <mxCell id="kxyHx-TRx4rQ2cI2zu9u-15" style="edgeStyle=none;shape=connector;rounded=0;orthogonalLoop=1;jettySize=auto;html=1;entryX=0;entryY=0.5;entryDx=0;entryDy=0;labelBackgroundColor=default;strokeColor=default;strokeWidth=2;fontFamily=Fira Code;fontSource=https%3A%2F%2Ffonts.googleapis.com%2Fcss%3Ffamily%3DFira%2BCode;fontSize=16;fontColor=default;endArrow=open;endFill=0;" edge="1" parent="1" source="kxyHx-TRx4rQ2cI2zu9u-6" target="kxyHx-TRx4rQ2cI2zu9u-14">
          <mxGeometry relative="1" as="geometry">
            <Array as="points">
              <mxPoint x="600" y="980" />
              <mxPoint x="620" y="1000" />
            </Array>
          </mxGeometry>
        </mxCell>
        <mxCell id="kxyHx-TRx4rQ2cI2zu9u-6" value="&lt;b&gt;Design API Routing&lt;/b&gt;" style="rounded=0;whiteSpace=wrap;html=1;strokeColor=default;strokeWidth=2;fontFamily=Fira Code;fontSource=https%3A%2F%2Ffonts.googleapis.com%2Fcss%3Ffamily%3DFira%2BCode;fontSize=16;fontColor=default;fillColor=#E6E6E6;" vertex="1" parent="1">
          <mxGeometry x="480" y="830" width="240" height="60" as="geometry" />
        </mxCell>
        <mxCell id="kxyHx-TRx4rQ2cI2zu9u-7" value="&lt;b&gt;Design Frontend&lt;/b&gt;" style="rounded=0;whiteSpace=wrap;html=1;strokeColor=default;strokeWidth=2;fontFamily=Fira Code;fontSource=https%3A%2F%2Ffonts.googleapis.com%2Fcss%3Ffamily%3DFira%2BCode;fontSize=16;fontColor=default;fillColor=#E6E6E6;" vertex="1" parent="1">
          <mxGeometry x="200" y="830" width="240" height="60" as="geometry" />
        </mxCell>
        <mxCell id="kxyHx-TRx4rQ2cI2zu9u-8" value="&lt;b&gt;Develop Authentication&lt;/b&gt;" style="rounded=0;whiteSpace=wrap;html=1;strokeColor=default;strokeWidth=2;fontFamily=Fira Code;fontSource=https%3A%2F%2Ffonts.googleapis.com%2Fcss%3Ffamily%3DFira%2BCode;fontSize=16;fontColor=default;fillColor=#E6E6E6;" vertex="1" parent="1">
          <mxGeometry x="760" y="830" width="240" height="60" as="geometry" />
        </mxCell>
        <mxCell id="kxyHx-TRx4rQ2cI2zu9u-9" value="&lt;b&gt;Design Landing Page&lt;/b&gt;" style="rounded=0;whiteSpace=wrap;html=1;strokeColor=default;strokeWidth=2;fontFamily=Fira Code;fontSource=https%3A%2F%2Ffonts.googleapis.com%2Fcss%3Ffamily%3DFira%2BCode;fontSize=16;fontColor=default;fillColor=#E6E6E6;" vertex="1" parent="1">
          <mxGeometry x="-80" y="830" width="240" height="60" as="geometry" />
        </mxCell>
        <mxCell id="kxyHx-TRx4rQ2cI2zu9u-10" value="&lt;b&gt;Test Authentication&lt;/b&gt;" style="rounded=0;whiteSpace=wrap;html=1;strokeColor=default;strokeWidth=2;fontFamily=Fira Code;fontSource=https%3A%2F%2Ffonts.googleapis.com%2Fcss%3Ffamily%3DFira%2BCode;fontSize=16;fontColor=default;fillColor=#E6E6E6;" vertex="1" parent="1">
          <mxGeometry x="1040" y="830" width="240" height="60" as="geometry" />
        </mxCell>
        <mxCell id="kxyHx-TRx4rQ2cI2zu9u-11" value="&lt;b&gt;Design DB Schemas&lt;/b&gt;" style="rounded=0;whiteSpace=wrap;html=1;strokeColor=default;strokeWidth=2;fontFamily=Fira Code;fontSource=https%3A%2F%2Ffonts.googleapis.com%2Fcss%3Ffamily%3DFira%2BCode;fontSize=16;fontColor=default;fillColor=#E6E6E6;" vertex="1" parent="1">
          <mxGeometry x="200" y="970" width="240" height="60" as="geometry" />
        </mxCell>
        <mxCell id="kxyHx-TRx4rQ2cI2zu9u-24" style="edgeStyle=none;shape=connector;rounded=0;orthogonalLoop=1;jettySize=auto;html=1;entryX=0.5;entryY=1;entryDx=0;entryDy=0;labelBackgroundColor=default;strokeColor=default;strokeWidth=2;fontFamily=Fira Code;fontSource=https%3A%2F%2Ffonts.googleapis.com%2Fcss%3Ffamily%3DFira%2BCode;fontSize=16;fontColor=default;endArrow=open;endFill=0;" edge="1" parent="1" source="kxyHx-TRx4rQ2cI2zu9u-14" target="kxyHx-TRx4rQ2cI2zu9u-10">
          <mxGeometry relative="1" as="geometry">
            <Array as="points">
              <mxPoint x="1140" y="1000" />
              <mxPoint x="1160" y="980" />
            </Array>
          </mxGeometry>
        </mxCell>
        <mxCell id="kxyHx-TRx4rQ2cI2zu9u-14" value="&lt;b&gt;Develop Database&lt;/b&gt;" style="rounded=0;whiteSpace=wrap;html=1;strokeColor=default;strokeWidth=2;fontFamily=Fira Code;fontSource=https%3A%2F%2Ffonts.googleapis.com%2Fcss%3Ffamily%3DFira%2BCode;fontSize=16;fontColor=default;fillColor=#E6E6E6;" vertex="1" parent="1">
          <mxGeometry x="760" y="970" width="240" height="60" as="geometry" />
        </mxCell>
        <mxCell id="kxyHx-TRx4rQ2cI2zu9u-26" style="edgeStyle=none;shape=connector;rounded=0;orthogonalLoop=1;jettySize=auto;html=1;entryX=0.5;entryY=0;entryDx=0;entryDy=0;labelBackgroundColor=default;strokeColor=default;strokeWidth=2;fontFamily=Fira Code;fontSource=https%3A%2F%2Ffonts.googleapis.com%2Fcss%3Ffamily%3DFira%2BCode;fontSize=16;fontColor=default;endArrow=open;endFill=0;" edge="1" parent="1" source="kxyHx-TRx4rQ2cI2zu9u-16" target="kxyHx-TRx4rQ2cI2zu9u-25">
          <mxGeometry relative="1" as="geometry">
            <Array as="points">
              <mxPoint x="200" y="1140" />
              <mxPoint x="180" y="1160" />
            </Array>
          </mxGeometry>
        </mxCell>
        <mxCell id="kxyHx-TRx4rQ2cI2zu9u-27" style="edgeStyle=none;shape=connector;rounded=0;orthogonalLoop=1;jettySize=auto;html=1;entryX=0.5;entryY=0;entryDx=0;entryDy=0;labelBackgroundColor=default;strokeColor=default;strokeWidth=2;fontFamily=Fira Code;fontSource=https%3A%2F%2Ffonts.googleapis.com%2Fcss%3Ffamily%3DFira%2BCode;fontSize=16;fontColor=default;endArrow=open;endFill=0;" edge="1" parent="1" source="kxyHx-TRx4rQ2cI2zu9u-16" target="kxyHx-TRx4rQ2cI2zu9u-18">
          <mxGeometry relative="1" as="geometry">
            <Array as="points">
              <mxPoint x="460" y="1200" />
            </Array>
          </mxGeometry>
        </mxCell>
        <mxCell id="kxyHx-TRx4rQ2cI2zu9u-28" style="edgeStyle=none;shape=connector;rounded=0;orthogonalLoop=1;jettySize=auto;html=1;entryX=0.5;entryY=0;entryDx=0;entryDy=0;labelBackgroundColor=default;strokeColor=default;strokeWidth=2;fontFamily=Fira Code;fontSource=https%3A%2F%2Ffonts.googleapis.com%2Fcss%3Ffamily%3DFira%2BCode;fontSize=16;fontColor=default;endArrow=open;endFill=0;" edge="1" parent="1" source="kxyHx-TRx4rQ2cI2zu9u-16" target="kxyHx-TRx4rQ2cI2zu9u-17">
          <mxGeometry relative="1" as="geometry">
            <Array as="points">
              <mxPoint x="740" y="1200" />
            </Array>
          </mxGeometry>
        </mxCell>
        <mxCell id="kxyHx-TRx4rQ2cI2zu9u-29" style="edgeStyle=none;shape=connector;rounded=0;orthogonalLoop=1;jettySize=auto;html=1;entryX=0.5;entryY=0;entryDx=0;entryDy=0;labelBackgroundColor=default;strokeColor=default;strokeWidth=2;fontFamily=Fira Code;fontSource=https%3A%2F%2Ffonts.googleapis.com%2Fcss%3Ffamily%3DFira%2BCode;fontSize=16;fontColor=default;endArrow=open;endFill=0;" edge="1" parent="1" source="kxyHx-TRx4rQ2cI2zu9u-16" target="kxyHx-TRx4rQ2cI2zu9u-19">
          <mxGeometry relative="1" as="geometry">
            <Array as="points">
              <mxPoint x="1000" y="1140" />
              <mxPoint x="1020" y="1160" />
            </Array>
          </mxGeometry>
        </mxCell>
        <mxCell id="kxyHx-TRx4rQ2cI2zu9u-34" style="edgeStyle=none;shape=connector;rounded=0;orthogonalLoop=1;jettySize=auto;html=1;entryX=0.5;entryY=0;entryDx=0;entryDy=0;labelBackgroundColor=default;strokeColor=default;strokeWidth=2;fontFamily=Fira Code;fontSource=https%3A%2F%2Ffonts.googleapis.com%2Fcss%3Ffamily%3DFira%2BCode;fontSize=16;fontColor=default;endArrow=open;endFill=0;exitX=0;exitY=0.5;exitDx=0;exitDy=0;" edge="1" parent="1" source="kxyHx-TRx4rQ2cI2zu9u-17" target="kxyHx-TRx4rQ2cI2zu9u-30">
          <mxGeometry relative="1" as="geometry">
            <Array as="points">
              <mxPoint x="600" y="1280" />
              <mxPoint x="600" y="1320" />
              <mxPoint x="580" y="1340" />
              <mxPoint x="60" y="1340" />
              <mxPoint x="40" y="1360" />
            </Array>
          </mxGeometry>
        </mxCell>
        <mxCell id="kxyHx-TRx4rQ2cI2zu9u-35" style="edgeStyle=none;shape=connector;rounded=0;orthogonalLoop=1;jettySize=auto;html=1;entryX=0.5;entryY=0;entryDx=0;entryDy=0;labelBackgroundColor=default;strokeColor=default;strokeWidth=2;fontFamily=Fira Code;fontSource=https%3A%2F%2Ffonts.googleapis.com%2Fcss%3Ffamily%3DFira%2BCode;fontSize=16;fontColor=default;endArrow=open;endFill=0;exitX=0;exitY=0.5;exitDx=0;exitDy=0;" edge="1" parent="1" source="kxyHx-TRx4rQ2cI2zu9u-17" target="kxyHx-TRx4rQ2cI2zu9u-21">
          <mxGeometry relative="1" as="geometry">
            <Array as="points">
              <mxPoint x="600" y="1280" />
              <mxPoint x="600" y="1320" />
              <mxPoint x="580" y="1340" />
              <mxPoint x="340" y="1340" />
              <mxPoint x="320" y="1360" />
            </Array>
          </mxGeometry>
        </mxCell>
        <mxCell id="kxyHx-TRx4rQ2cI2zu9u-36" style="edgeStyle=none;shape=connector;rounded=0;orthogonalLoop=1;jettySize=auto;html=1;entryX=0.5;entryY=0;entryDx=0;entryDy=0;labelBackgroundColor=default;strokeColor=default;strokeWidth=2;fontFamily=Fira Code;fontSource=https%3A%2F%2Ffonts.googleapis.com%2Fcss%3Ffamily%3DFira%2BCode;fontSize=16;fontColor=default;endArrow=open;endFill=0;exitX=0;exitY=0.5;exitDx=0;exitDy=0;" edge="1" parent="1" source="kxyHx-TRx4rQ2cI2zu9u-17" target="kxyHx-TRx4rQ2cI2zu9u-31">
          <mxGeometry relative="1" as="geometry">
            <Array as="points">
              <mxPoint x="600" y="1280" />
            </Array>
          </mxGeometry>
        </mxCell>
        <mxCell id="kxyHx-TRx4rQ2cI2zu9u-37" style="edgeStyle=none;shape=connector;rounded=0;orthogonalLoop=1;jettySize=auto;html=1;entryX=0.5;entryY=0;entryDx=0;entryDy=0;labelBackgroundColor=default;strokeColor=default;strokeWidth=2;fontFamily=Fira Code;fontSource=https%3A%2F%2Ffonts.googleapis.com%2Fcss%3Ffamily%3DFira%2BCode;fontSize=16;fontColor=default;endArrow=open;endFill=0;exitX=0;exitY=0.5;exitDx=0;exitDy=0;" edge="1" parent="1" source="kxyHx-TRx4rQ2cI2zu9u-17" target="kxyHx-TRx4rQ2cI2zu9u-32">
          <mxGeometry relative="1" as="geometry">
            <Array as="points">
              <mxPoint x="600" y="1280" />
              <mxPoint x="600" y="1320" />
              <mxPoint x="620" y="1340" />
              <mxPoint x="860" y="1340" />
              <mxPoint x="880" y="1360" />
            </Array>
          </mxGeometry>
        </mxCell>
        <mxCell id="kxyHx-TRx4rQ2cI2zu9u-38" style="edgeStyle=none;shape=connector;rounded=0;orthogonalLoop=1;jettySize=auto;html=1;entryX=0.5;entryY=0;entryDx=0;entryDy=0;labelBackgroundColor=default;strokeColor=default;strokeWidth=2;fontFamily=Fira Code;fontSource=https%3A%2F%2Ffonts.googleapis.com%2Fcss%3Ffamily%3DFira%2BCode;fontSize=16;fontColor=default;endArrow=open;endFill=0;exitX=0;exitY=0.5;exitDx=0;exitDy=0;" edge="1" parent="1" source="kxyHx-TRx4rQ2cI2zu9u-17" target="kxyHx-TRx4rQ2cI2zu9u-33">
          <mxGeometry relative="1" as="geometry">
            <Array as="points">
              <mxPoint x="600" y="1280" />
              <mxPoint x="600" y="1320" />
              <mxPoint x="620" y="1340" />
              <mxPoint x="1140" y="1340" />
              <mxPoint x="1160" y="1360" />
            </Array>
          </mxGeometry>
        </mxCell>
        <mxCell id="kxyHx-TRx4rQ2cI2zu9u-16" value="Game" style="shape=parallelogram;perimeter=parallelogramPerimeter;whiteSpace=wrap;html=1;fixedSize=1;strokeWidth=2;fontStyle=1;fontSize=16;fontFamily=Fira Code;fontSource=https%3A%2F%2Ffonts.googleapis.com%2Fcss%3Ffamily%3DFira%2BCode;fillColor=#E6E6E6;" vertex="1" parent="1">
          <mxGeometry x="480" y="1110" width="240" height="60" as="geometry" />
        </mxCell>
        <mxCell id="kxyHx-TRx4rQ2cI2zu9u-17" value="&lt;b&gt;Game Development&lt;/b&gt;" style="rounded=0;whiteSpace=wrap;html=1;strokeColor=default;strokeWidth=2;fontFamily=Fira Code;fontSource=https%3A%2F%2Ffonts.googleapis.com%2Fcss%3Ffamily%3DFira%2BCode;fontSize=16;fontColor=default;fillColor=#E6E6E6;" vertex="1" parent="1">
          <mxGeometry x="620" y="1250" width="240" height="60" as="geometry" />
        </mxCell>
        <mxCell id="kxyHx-TRx4rQ2cI2zu9u-18" value="&lt;b&gt;Game Design&lt;/b&gt;" style="rounded=0;whiteSpace=wrap;html=1;strokeColor=default;strokeWidth=2;fontFamily=Fira Code;fontSource=https%3A%2F%2Ffonts.googleapis.com%2Fcss%3Ffamily%3DFira%2BCode;fontSize=16;fontColor=default;fillColor=#E6E6E6;" vertex="1" parent="1">
          <mxGeometry x="340" y="1250" width="240" height="60" as="geometry" />
        </mxCell>
        <mxCell id="kxyHx-TRx4rQ2cI2zu9u-19" value="&lt;b&gt;Game Testing&lt;/b&gt;" style="rounded=0;whiteSpace=wrap;html=1;strokeColor=default;strokeWidth=2;fontFamily=Fira Code;fontSource=https%3A%2F%2Ffonts.googleapis.com%2Fcss%3Ffamily%3DFira%2BCode;fontSize=16;fontColor=default;fillColor=#E6E6E6;" vertex="1" parent="1">
          <mxGeometry x="900" y="1250" width="240" height="60" as="geometry" />
        </mxCell>
        <mxCell id="kxyHx-TRx4rQ2cI2zu9u-21" value="&lt;b&gt;Develop Tablatures&lt;/b&gt;" style="rounded=0;whiteSpace=wrap;html=1;strokeColor=default;strokeWidth=2;fontFamily=Fira Code;fontSource=https%3A%2F%2Ffonts.googleapis.com%2Fcss%3Ffamily%3DFira%2BCode;fontSize=16;fontColor=default;fillColor=#E6E6E6;" vertex="1" parent="1">
          <mxGeometry x="200" y="1390" width="240" height="60" as="geometry" />
        </mxCell>
        <mxCell id="kxyHx-TRx4rQ2cI2zu9u-25" value="&lt;b&gt;Utitlity Functions&lt;/b&gt;" style="rounded=0;whiteSpace=wrap;html=1;strokeColor=default;strokeWidth=2;fontFamily=Fira Code;fontSource=https%3A%2F%2Ffonts.googleapis.com%2Fcss%3Ffamily%3DFira%2BCode;fontSize=16;fontColor=default;fillColor=#E6E6E6;" vertex="1" parent="1">
          <mxGeometry x="60" y="1250" width="240" height="60" as="geometry" />
        </mxCell>
        <mxCell id="kxyHx-TRx4rQ2cI2zu9u-30" value="&lt;b&gt;Develop Gameplay&lt;/b&gt;" style="rounded=0;whiteSpace=wrap;html=1;strokeColor=default;strokeWidth=2;fontFamily=Fira Code;fontSource=https%3A%2F%2Ffonts.googleapis.com%2Fcss%3Ffamily%3DFira%2BCode;fontSize=16;fontColor=default;fillColor=#E6E6E6;" vertex="1" parent="1">
          <mxGeometry x="-80" y="1390" width="240" height="60" as="geometry" />
        </mxCell>
        <mxCell id="kxyHx-TRx4rQ2cI2zu9u-31" value="&lt;b&gt;Develop Virtual Guitar&lt;/b&gt;" style="rounded=0;whiteSpace=wrap;html=1;strokeColor=default;strokeWidth=2;fontFamily=Fira Code;fontSource=https%3A%2F%2Ffonts.googleapis.com%2Fcss%3Ffamily%3DFira%2BCode;fontSize=16;fontColor=default;fillColor=#E6E6E6;" vertex="1" parent="1">
          <mxGeometry x="480" y="1390" width="240" height="60" as="geometry" />
        </mxCell>
        <mxCell id="kxyHx-TRx4rQ2cI2zu9u-32" value="&lt;b&gt;Develop Music Controls&lt;/b&gt;" style="rounded=0;whiteSpace=wrap;html=1;strokeColor=default;strokeWidth=2;fontFamily=Fira Code;fontSource=https%3A%2F%2Ffonts.googleapis.com%2Fcss%3Ffamily%3DFira%2BCode;fontSize=16;fontColor=default;fillColor=#E6E6E6;" vertex="1" parent="1">
          <mxGeometry x="760" y="1390" width="240" height="60" as="geometry" />
        </mxCell>
        <mxCell id="kxyHx-TRx4rQ2cI2zu9u-33" value="&lt;b&gt;Develop Scoring System&lt;/b&gt;" style="rounded=0;whiteSpace=wrap;html=1;strokeColor=default;strokeWidth=2;fontFamily=Fira Code;fontSource=https%3A%2F%2Ffonts.googleapis.com%2Fcss%3Ffamily%3DFira%2BCode;fontSize=16;fontColor=default;fillColor=#E6E6E6;" vertex="1" parent="1">
          <mxGeometry x="1040" y="1390" width="240" height="60" as="geometry" />
        </mxCell>
        <mxCell id="kxyHx-TRx4rQ2cI2zu9u-47" style="edgeStyle=none;shape=connector;rounded=0;orthogonalLoop=1;jettySize=auto;html=1;entryX=0.5;entryY=0;entryDx=0;entryDy=0;labelBackgroundColor=default;strokeColor=default;strokeWidth=2;fontFamily=Fira Code;fontSource=https%3A%2F%2Ffonts.googleapis.com%2Fcss%3Ffamily%3DFira%2BCode;fontSize=16;fontColor=default;endArrow=open;endFill=0;" edge="1" parent="1" source="kxyHx-TRx4rQ2cI2zu9u-39" target="kxyHx-TRx4rQ2cI2zu9u-42">
          <mxGeometry relative="1" as="geometry">
            <Array as="points">
              <mxPoint x="340" y="1560" />
              <mxPoint x="320" y="1580" />
            </Array>
          </mxGeometry>
        </mxCell>
        <mxCell id="kxyHx-TRx4rQ2cI2zu9u-48" style="edgeStyle=none;shape=connector;rounded=0;orthogonalLoop=1;jettySize=auto;html=1;labelBackgroundColor=default;strokeColor=default;strokeWidth=2;fontFamily=Fira Code;fontSource=https%3A%2F%2Ffonts.googleapis.com%2Fcss%3Ffamily%3DFira%2BCode;fontSize=16;fontColor=default;endArrow=open;endFill=0;" edge="1" parent="1" source="kxyHx-TRx4rQ2cI2zu9u-39" target="kxyHx-TRx4rQ2cI2zu9u-43">
          <mxGeometry relative="1" as="geometry" />
        </mxCell>
        <mxCell id="kxyHx-TRx4rQ2cI2zu9u-49" style="edgeStyle=none;shape=connector;rounded=0;orthogonalLoop=1;jettySize=auto;html=1;entryX=0.5;entryY=0;entryDx=0;entryDy=0;labelBackgroundColor=default;strokeColor=default;strokeWidth=2;fontFamily=Fira Code;fontSource=https%3A%2F%2Ffonts.googleapis.com%2Fcss%3Ffamily%3DFira%2BCode;fontSize=16;fontColor=default;endArrow=open;endFill=0;" edge="1" parent="1" source="kxyHx-TRx4rQ2cI2zu9u-39" target="kxyHx-TRx4rQ2cI2zu9u-46">
          <mxGeometry relative="1" as="geometry">
            <Array as="points">
              <mxPoint x="860" y="1560" />
              <mxPoint x="880" y="1580" />
            </Array>
          </mxGeometry>
        </mxCell>
        <mxCell id="kxyHx-TRx4rQ2cI2zu9u-39" value="Jam Session &amp;amp; Compose" style="shape=parallelogram;perimeter=parallelogramPerimeter;whiteSpace=wrap;html=1;fixedSize=1;strokeWidth=2;fontStyle=1;fontSize=16;fontFamily=Fira Code;fontSource=https%3A%2F%2Ffonts.googleapis.com%2Fcss%3Ffamily%3DFira%2BCode;fillColor=#E6E6E6;" vertex="1" parent="1">
          <mxGeometry x="480" y="1530" width="240" height="60" as="geometry" />
        </mxCell>
        <mxCell id="kxyHx-TRx4rQ2cI2zu9u-40" value="&lt;b&gt;Design Jam Session&lt;/b&gt;" style="rounded=0;whiteSpace=wrap;html=1;strokeColor=default;strokeWidth=2;fontFamily=Fira Code;fontSource=https%3A%2F%2Ffonts.googleapis.com%2Fcss%3Ffamily%3DFira%2BCode;fontSize=16;fontColor=default;fillColor=#E6E6E6;" vertex="1" parent="1">
          <mxGeometry x="60" y="1810" width="240" height="60" as="geometry" />
        </mxCell>
        <mxCell id="kxyHx-TRx4rQ2cI2zu9u-41" value="&lt;b&gt;Design Music Studio&lt;/b&gt;" style="rounded=0;whiteSpace=wrap;html=1;strokeColor=default;strokeWidth=2;fontFamily=Fira Code;fontSource=https%3A%2F%2Ffonts.googleapis.com%2Fcss%3Ffamily%3DFira%2BCode;fontSize=16;fontColor=default;fillColor=#E6E6E6;" vertex="1" parent="1">
          <mxGeometry x="340" y="1810" width="240" height="60" as="geometry" />
        </mxCell>
        <mxCell id="kxyHx-TRx4rQ2cI2zu9u-50" style="edgeStyle=none;shape=connector;rounded=0;orthogonalLoop=1;jettySize=auto;html=1;entryX=0.5;entryY=0;entryDx=0;entryDy=0;labelBackgroundColor=default;strokeColor=default;strokeWidth=2;fontFamily=Fira Code;fontSource=https%3A%2F%2Ffonts.googleapis.com%2Fcss%3Ffamily%3DFira%2BCode;fontSize=16;fontColor=default;endArrow=open;endFill=0;" edge="1" parent="1" source="kxyHx-TRx4rQ2cI2zu9u-42" target="kxyHx-TRx4rQ2cI2zu9u-40">
          <mxGeometry relative="1" as="geometry">
            <Array as="points">
              <mxPoint x="180" y="1770" />
            </Array>
          </mxGeometry>
        </mxCell>
        <mxCell id="kxyHx-TRx4rQ2cI2zu9u-51" style="edgeStyle=none;shape=connector;rounded=0;orthogonalLoop=1;jettySize=auto;html=1;entryX=0.539;entryY=0.044;entryDx=0;entryDy=0;entryPerimeter=0;labelBackgroundColor=default;strokeColor=default;strokeWidth=2;fontFamily=Fira Code;fontSource=https%3A%2F%2Ffonts.googleapis.com%2Fcss%3Ffamily%3DFira%2BCode;fontSize=16;fontColor=default;endArrow=open;endFill=0;" edge="1" parent="1" source="kxyHx-TRx4rQ2cI2zu9u-42" target="kxyHx-TRx4rQ2cI2zu9u-41">
          <mxGeometry relative="1" as="geometry">
            <Array as="points">
              <mxPoint x="470" y="1770" />
            </Array>
          </mxGeometry>
        </mxCell>
        <mxCell id="kxyHx-TRx4rQ2cI2zu9u-42" value="&lt;b&gt;Feature Designs&lt;/b&gt;" style="rounded=0;whiteSpace=wrap;html=1;strokeColor=default;strokeWidth=2;fontFamily=Fira Code;fontSource=https%3A%2F%2Ffonts.googleapis.com%2Fcss%3Ffamily%3DFira%2BCode;fontSize=16;fontColor=default;fillColor=#E6E6E6;" vertex="1" parent="1">
          <mxGeometry x="200" y="1670" width="240" height="60" as="geometry" />
        </mxCell>
        <mxCell id="kxyHx-TRx4rQ2cI2zu9u-52" style="edgeStyle=none;shape=connector;rounded=0;orthogonalLoop=1;jettySize=auto;html=1;entryX=0.5;entryY=0;entryDx=0;entryDy=0;labelBackgroundColor=default;strokeColor=default;strokeWidth=2;fontFamily=Fira Code;fontSource=https%3A%2F%2Ffonts.googleapis.com%2Fcss%3Ffamily%3DFira%2BCode;fontSize=16;fontColor=default;endArrow=open;endFill=0;" edge="1" parent="1" source="kxyHx-TRx4rQ2cI2zu9u-43" target="kxyHx-TRx4rQ2cI2zu9u-44">
          <mxGeometry relative="1" as="geometry">
            <Array as="points">
              <mxPoint x="600" y="1750" />
              <mxPoint x="620" y="1770" />
              <mxPoint x="720" y="1770" />
              <mxPoint x="740" y="1790" />
            </Array>
          </mxGeometry>
        </mxCell>
        <mxCell id="kxyHx-TRx4rQ2cI2zu9u-53" style="edgeStyle=none;shape=connector;rounded=0;orthogonalLoop=1;jettySize=auto;html=1;entryX=0.5;entryY=0;entryDx=0;entryDy=0;labelBackgroundColor=default;strokeColor=default;strokeWidth=2;fontFamily=Fira Code;fontSource=https%3A%2F%2Ffonts.googleapis.com%2Fcss%3Ffamily%3DFira%2BCode;fontSize=16;fontColor=default;endArrow=open;endFill=0;" edge="1" parent="1" source="kxyHx-TRx4rQ2cI2zu9u-43" target="kxyHx-TRx4rQ2cI2zu9u-45">
          <mxGeometry relative="1" as="geometry">
            <Array as="points">
              <mxPoint x="600" y="1750" />
              <mxPoint x="620" y="1770" />
              <mxPoint x="1000" y="1770" />
              <mxPoint x="1020" y="1790" />
            </Array>
          </mxGeometry>
        </mxCell>
        <mxCell id="kxyHx-TRx4rQ2cI2zu9u-43" value="&lt;b&gt;Feature Development&lt;/b&gt;" style="rounded=0;whiteSpace=wrap;html=1;strokeColor=default;strokeWidth=2;fontFamily=Fira Code;fontSource=https%3A%2F%2Ffonts.googleapis.com%2Fcss%3Ffamily%3DFira%2BCode;fontSize=16;fontColor=default;fillColor=#E6E6E6;" vertex="1" parent="1">
          <mxGeometry x="480" y="1670" width="240" height="60" as="geometry" />
        </mxCell>
        <mxCell id="kxyHx-TRx4rQ2cI2zu9u-44" value="&lt;b&gt;Tablature Edition&lt;/b&gt;" style="rounded=0;whiteSpace=wrap;html=1;strokeColor=default;strokeWidth=2;fontFamily=Fira Code;fontSource=https%3A%2F%2Ffonts.googleapis.com%2Fcss%3Ffamily%3DFira%2BCode;fontSize=16;fontColor=default;fillColor=#E6E6E6;" vertex="1" parent="1">
          <mxGeometry x="620" y="1810" width="240" height="60" as="geometry" />
        </mxCell>
        <mxCell id="kxyHx-TRx4rQ2cI2zu9u-45" value="&lt;b&gt;Develop Jam Audio&lt;/b&gt;" style="rounded=0;whiteSpace=wrap;html=1;strokeColor=default;strokeWidth=2;fontFamily=Fira Code;fontSource=https%3A%2F%2Ffonts.googleapis.com%2Fcss%3Ffamily%3DFira%2BCode;fontSize=16;fontColor=default;fillColor=#E6E6E6;" vertex="1" parent="1">
          <mxGeometry x="900" y="1810" width="240" height="60" as="geometry" />
        </mxCell>
        <mxCell id="kxyHx-TRx4rQ2cI2zu9u-46" value="&lt;b&gt;Test Jam and Compose&lt;/b&gt;" style="rounded=0;whiteSpace=wrap;html=1;strokeColor=default;strokeWidth=2;fontFamily=Fira Code;fontSource=https%3A%2F%2Ffonts.googleapis.com%2Fcss%3Ffamily%3DFira%2BCode;fontSize=16;fontColor=default;fillColor=#E6E6E6;" vertex="1" parent="1">
          <mxGeometry x="760" y="1670" width="240" height="60" as="geometry" />
        </mxCell>
        <mxCell id="kxyHx-TRx4rQ2cI2zu9u-58" style="edgeStyle=none;shape=connector;rounded=0;orthogonalLoop=1;jettySize=auto;html=1;entryX=0.5;entryY=0;entryDx=0;entryDy=0;labelBackgroundColor=default;strokeColor=default;strokeWidth=2;fontFamily=Fira Code;fontSource=https%3A%2F%2Ffonts.googleapis.com%2Fcss%3Ffamily%3DFira%2BCode;fontSize=16;fontColor=default;endArrow=open;endFill=0;" edge="1" parent="1" source="kxyHx-TRx4rQ2cI2zu9u-54" target="kxyHx-TRx4rQ2cI2zu9u-55">
          <mxGeometry relative="1" as="geometry">
            <Array as="points">
              <mxPoint x="340" y="1980" />
              <mxPoint x="320" y="2000" />
            </Array>
          </mxGeometry>
        </mxCell>
        <mxCell id="kxyHx-TRx4rQ2cI2zu9u-59" style="edgeStyle=none;shape=connector;rounded=0;orthogonalLoop=1;jettySize=auto;html=1;entryX=0.5;entryY=0;entryDx=0;entryDy=0;labelBackgroundColor=default;strokeColor=default;strokeWidth=2;fontFamily=Fira Code;fontSource=https%3A%2F%2Ffonts.googleapis.com%2Fcss%3Ffamily%3DFira%2BCode;fontSize=16;fontColor=default;endArrow=open;endFill=0;" edge="1" parent="1" source="kxyHx-TRx4rQ2cI2zu9u-54" target="kxyHx-TRx4rQ2cI2zu9u-57">
          <mxGeometry relative="1" as="geometry">
            <Array as="points">
              <mxPoint x="860" y="1980" />
              <mxPoint x="880" y="2000" />
            </Array>
          </mxGeometry>
        </mxCell>
        <mxCell id="kxyHx-TRx4rQ2cI2zu9u-60" style="edgeStyle=none;shape=connector;rounded=0;orthogonalLoop=1;jettySize=auto;html=1;entryX=0.5;entryY=0;entryDx=0;entryDy=0;labelBackgroundColor=default;strokeColor=default;strokeWidth=2;fontFamily=Fira Code;fontSource=https%3A%2F%2Ffonts.googleapis.com%2Fcss%3Ffamily%3DFira%2BCode;fontSize=16;fontColor=default;endArrow=open;endFill=0;" edge="1" parent="1" source="kxyHx-TRx4rQ2cI2zu9u-54" target="kxyHx-TRx4rQ2cI2zu9u-56">
          <mxGeometry relative="1" as="geometry" />
        </mxCell>
        <mxCell id="kxyHx-TRx4rQ2cI2zu9u-54" value="Chord Explorer" style="shape=parallelogram;perimeter=parallelogramPerimeter;whiteSpace=wrap;html=1;fixedSize=1;strokeWidth=2;fontStyle=1;fontSize=16;fontFamily=Fira Code;fontSource=https%3A%2F%2Ffonts.googleapis.com%2Fcss%3Ffamily%3DFira%2BCode;fillColor=#E6E6E6;" vertex="1" parent="1">
          <mxGeometry x="480" y="1950" width="240" height="60" as="geometry" />
        </mxCell>
        <mxCell id="kxyHx-TRx4rQ2cI2zu9u-55" value="&lt;b&gt;Collect Chords&lt;/b&gt;" style="rounded=0;whiteSpace=wrap;html=1;strokeColor=default;strokeWidth=2;fontFamily=Fira Code;fontSource=https%3A%2F%2Ffonts.googleapis.com%2Fcss%3Ffamily%3DFira%2BCode;fontSize=16;fontColor=default;fillColor=#E6E6E6;" vertex="1" parent="1">
          <mxGeometry x="200" y="2090" width="240" height="60" as="geometry" />
        </mxCell>
        <mxCell id="kxyHx-TRx4rQ2cI2zu9u-56" value="&lt;b&gt;Design Chords Visual&lt;/b&gt;" style="rounded=0;whiteSpace=wrap;html=1;strokeColor=default;strokeWidth=2;fontFamily=Fira Code;fontSource=https%3A%2F%2Ffonts.googleapis.com%2Fcss%3Ffamily%3DFira%2BCode;fontSize=16;fontColor=default;fillColor=#E6E6E6;" vertex="1" parent="1">
          <mxGeometry x="480" y="2090" width="240" height="60" as="geometry" />
        </mxCell>
        <mxCell id="kxyHx-TRx4rQ2cI2zu9u-57" value="&lt;b&gt;Develop Explorer&lt;/b&gt;" style="rounded=0;whiteSpace=wrap;html=1;strokeColor=default;strokeWidth=2;fontFamily=Fira Code;fontSource=https%3A%2F%2Ffonts.googleapis.com%2Fcss%3Ffamily%3DFira%2BCode;fontSize=16;fontColor=default;fillColor=#E6E6E6;" vertex="1" parent="1">
          <mxGeometry x="760" y="2090" width="240" height="60" as="geometry" />
        </mxCell>
        <mxCell id="kxyHx-TRx4rQ2cI2zu9u-61" value="&lt;b&gt;User Acceptance Testing&lt;/b&gt;" style="rounded=0;whiteSpace=wrap;html=1;strokeColor=default;strokeWidth=2;fontFamily=Fira Code;fontSource=https%3A%2F%2Ffonts.googleapis.com%2Fcss%3Ffamily%3DFira%2BCode;fontSize=16;fontColor=default;fillColor=#E6E6E6;" vertex="1" parent="1">
          <mxGeometry x="480" y="2230" width="240" height="60" as="geometry" />
        </mxCell>
      </root>
    </mxGraphModel>
  </diagram>
</mxfile>
